HIERARCHY
ROOT Hips
{
	OFFSET 0.000000 0.000000 0.000000
	CHANNELS 6 Xposition Yposition Zposition Xrotation Yrotation Zrotation
	JOINT LeftUpLeg_virtual
	{
		OFFSET 0.000000 0.000000 0.000000
		CHANNELS 3 Xrotation Yrotation Zrotation
		JOINT LeftUpLeg
		{
			OFFSET 10.205400 -3.823500 0.155100
			CHANNELS 3 Xrotation Yrotation Zrotation
			JOINT LeftLeg
			{
				OFFSET 0.708757 -12.982077 0.567790
				CHANNELS 3 Xrotation Yrotation Zrotation
				JOINT LeftFoot
				{
					OFFSET -0.708756 -10.717838 -2.184338
					CHANNELS 3 Xrotation Yrotation Zrotation
					JOINT LeftToeBase
					{
						OFFSET 0.108149 -7.191104 7.560241
						CHANNELS 3 Xrotation Yrotation Zrotation
						JOINT LeftToe_End
						{
							OFFSET 0.070230 0.081724 4.490308
							CHANNELS 3 Xrotation Yrotation Zrotation
							End Site
							{
								OFFSET 0 0 0
							}
						}
					}
				}
			}
		}
	}
	JOINT RightUpLeg_virtual
	{
		OFFSET 0.000000 0.000000 0.000000
		CHANNELS 3 Xrotation Yrotation Zrotation
		JOINT RightUpLeg
		{
			OFFSET -10.205400 -3.823500 0.005500
			CHANNELS 3 Xrotation Yrotation Zrotation
			JOINT RightLeg
			{
				OFFSET -0.708756 -12.982134 0.610632
				CHANNELS 3 Xrotation Yrotation Zrotation
				JOINT RightFoot
				{
					OFFSET 0.708754 -10.717769 -1.945823
					CHANNELS 3 Xrotation Yrotation Zrotation
					JOINT RightToeBase
					{
						OFFSET -0.108140 -7.191069 7.372968
						CHANNELS 3 Xrotation Yrotation Zrotation
						JOINT RightToe_End
						{
							OFFSET -0.070227 0.081735 4.479403
							CHANNELS 3 Xrotation Yrotation Zrotation
							End Site
							{
								OFFSET 0 0 0
							}
						}
					}
				}
			}
		}
	}
	JOINT Spine_virtual
	{
		OFFSET 0.000000 0.000000 0.000000
		CHANNELS 3 Xrotation Yrotation Zrotation
		JOINT Spine
		{
			OFFSET 0.000000 6.876099 0.125700
			CHANNELS 3 Xrotation Yrotation Zrotation
			JOINT Spine1
			{
				OFFSET 0.000000 5.730043 0.104720
				CHANNELS 3 Xrotation Yrotation Zrotation
				JOINT Spine1_split
				{
					OFFSET 0.000000 5.730043 0.104720
					CHANNELS 3 Xrotation Yrotation Zrotation
					JOINT Spine2
					{
						OFFSET 0.000000 5.730043 0.104720
						CHANNELS 3 Xrotation Yrotation Zrotation
						JOINT Neck_virtual
						{
							OFFSET 0.000000 0.000000 0.000000
							CHANNELS 3 Xrotation Yrotation Zrotation
							JOINT Neck
							{
								OFFSET 0.000000 10.314075 0.188496
								CHANNELS 3 Xrotation Yrotation Zrotation
								JOINT Head
								{
									OFFSET 0.000000 7.643700 -2.377400
									CHANNELS 3 Xrotation Yrotation Zrotation
									JOINT HeadTop_End
									{
										OFFSET 0.000000 43.788605 -13.619600
										CHANNELS 3 Xrotation Yrotation Zrotation
										End Site
										{
											OFFSET 0 0 0
										}
									}
								}
							}
						}
						JOINT LeftShoulder_virtual
						{
							OFFSET 0.000000 0.000000 0.000000
							CHANNELS 3 Xrotation Yrotation Zrotation
							JOINT LeftShoulder
							{
								OFFSET 2.196100 4.412489 0.087492
								CHANNELS 3 Xrotation Yrotation Zrotation
								JOINT LeftShoulder_split
								{
									OFFSET 2.196100 4.412489 0.087492
									CHANNELS 3 Xrotation Yrotation Zrotation
									JOINT LeftArm
									{
										OFFSET 8.771219 -2.981674 -0.026999
										CHANNELS 3 Xrotation Yrotation Zrotation
										JOINT LeftForeArm
										{
											OFFSET 8.512804 0.000000 -0.000000
											CHANNELS 3 Xrotation Yrotation Zrotation
											JOINT LeftHand
											{
												OFFSET 18.484802 0.000000 -0.000000
												CHANNELS 3 Xrotation Yrotation Zrotation
												End Site
												{
													OFFSET 0 0 0
												}
											}
										}
									}
								}
							}
						}
						JOINT RightShoulder_virtual
						{
							OFFSET 0.000000 0.000000 0.000000
							CHANNELS 3 Xrotation Yrotation Zrotation
							JOINT RightShoulder
							{
								OFFSET -2.196100 4.412496 0.070690
								CHANNELS 3 Xrotation Yrotation Zrotation
								JOINT RightShoulder_split
								{
									OFFSET -2.196100 4.412496 0.070690
									CHANNELS 3 Xrotation Yrotation Zrotation
									JOINT RightArm
									{
										OFFSET -8.771282 -2.981682 -0.094208
										CHANNELS 3 Xrotation Yrotation Zrotation
										JOINT RightForeArm
										{
											OFFSET -8.494598 0.000000 0.000000
											CHANNELS 3 Xrotation Yrotation Zrotation
											JOINT RightHand
											{
												OFFSET -18.483803 0.000000 0.000001
												CHANNELS 3 Xrotation Yrotation Zrotation
												End Site
												{
													OFFSET 0 0 0
												}
											}
										}
									}
								}
							}
						}
					}
				}
			}
		}
	}
}
MOTION
Frames: 10
Frame Time: 0.03333333
-1.078769 5.679625 10.368652 0.000000 0.000000 0.000000 -87.577109 -3.402106 1.782766 -27.072327 18.624789 -13.841887 31.971183 -4.315753 -10.126549 -2.408485 6.623203 13.923137 -0.279189 0.000002 0.000005 0.000000 0.000000 0.000000 -87.577109 -3.402106 1.782766 -0.928866 -10.047524 4.224015 -4.572439 -11.615538 3.971815 14.810910 -3.380678 22.118285 -1.652910 0.000016 -0.000008 0.000000 0.000000 0.000000 -87.577109 -3.402106 1.782766 0.707068 1.334855 -3.858671 -2.712473 0.550122 0.069934 0.000000 0.000000 0.000000 0.000000 0.000000 0.000000 -2.709986 0.572754 0.085568 3.954685 -0.162521 0.200794 7.663458 -2.706720 7.904901 0.000000 0.000000 0.000000 -2.709986 0.572754 0.085568 1.279294 -13.498971 -1.883360 0.000000 0.000000 0.000000 20.483964 -1.014521 -70.993492 179.999978 -42.508509 179.999978 0.000000 0.000000 0.000000 -2.709986 0.572754 0.085568 0.515809 6.973525 0.064737 0.000000 0.000000 0.000000 15.875315 6.901694 66.846501 179.999978 46.911997 179.999991 0.000000 0.000000 0.000000 
-1.078895 5.679585 10.369053 0.000000 0.000000 0.000000 -87.581733 -3.402168 1.779083 -27.066686 18.621336 -13.838029 31.965149 -4.317252 -10.125427 -2.393579 6.618189 13.903225 -0.292832 -0.000000 -0.000009 0.000000 0.000000 0.000000 -87.581733 -3.402168 1.779083 -0.930594 -10.051545 4.226460 -4.572993 -11.614995 3.971737 14.812843 -3.388435 22.109840 -1.646635 -0.000009 0.000013 0.000000 0.000000 0.000000 -87.581733 -3.402168 1.779083 0.716885 1.349750 -3.848264 -2.714814 0.553227 0.066522 0.000000 0.000000 0.000000 0.000000 0.000000 0.000000 -2.712327 0.575769 0.082299 3.958947 -0.166341 0.200117 7.643614 -2.740683 7.924390 0.000000 0.000000 0.000000 -2.712327 0.575769 0.082299 1.280306 -13.511008 -1.881040 0.000000 0.000000 0.000000 20.463064 -1.020406 -70.982461 -179.999978 -42.514898 -179.999991 0.000000 0.000000 0.000000 -2.712327 0.575769 0.082299 0.515695 6.970295 0.064805 0.000000 0.000000 0.000000 15.871044 6.874121 66.875270 179.999978 46.906263 -179.999991 0.000000 0.000000 0.000000 
-1.078928 5.678560 10.369267 0.000000 0.000000 0.000000 -87.576365 -3.395054 1.776021 -27.078560 18.624213 -13.835456 31.968222 -4.315673 -10.123524 -2.381109 6.620060 13.902737 -0.283604 -0.000002 0.000009 0.000000 0.000000 0.000000 -87.576365 -3.395054 1.776021 -0.931750 -10.055714 4.227189 -4.572300 -11.612658 3.971819 14.812396 -3.396163 22.103395 -1.639605 0.000014 -0.000005 0.000000 0.000000 0.000000 -87.576365 -3.395054 1.776021 0.715047 1.353434 -3.836770 -2.717587 0.553202 0.064004 0.000000 0.000000 0.000000 0.000000 0.000000 0.000000 -2.715123 0.575667 0.079816 3.962984 -0.169444 0.201217 7.634370 -2.769834 7.948577 0.000000 0.000000 0.000000 -2.715123 0.575667 0.079816 1.280967 -13.511725 -1.874329 0.000000 0.000000 0.000000 20.456937 -1.026659 -70.978786 -180.000005 -42.522207 179.999991 0.000000 0.000000 0.000000 -2.715123 0.575667 0.079816 0.516563 6.974772 0.064844 0.000000 0.000000 0.000000 15.862896 6.852986 66.901901 179.999964 46.899890 -180.000005 0.000000 0.000000 0.000000 
-1.079323 5.677792 10.369400 0.000000 0.000000 0.000000 -87.573093 -3.387307 1.775770 -27.085971 18.626932 -13.836274 31.970278 -4.314823 -10.121118 -2.373066 6.623173 13.905078 -0.272509 -0.000005 -0.000006 0.000000 0.000000 0.000000 -87.573093 -3.387307 1.775770 -0.933092 -10.060017 4.227850 -4.571468 -11.609800 3.971863 14.811397 -3.403544 22.096992 -1.632097 0.000024 -0.000028 0.000000 0.000000 0.000000 -87.573093 -3.387307 1.775770 0.708398 1.344226 -3.829217 -2.720170 0.550011 0.062056 0.000000 0.000000 0.000000 0.000000 0.000000 0.000000 -2.717717 0.572448 0.077790 3.965433 -0.170814 0.204288 7.633270 -2.783083 7.971755 0.000000 0.000000 0.000000 -2.717717 0.572448 0.077790 1.281608 -13.501143 -1.858541 0.000000 0.000000 0.000000 20.465238 -1.034956 -70.988007 179.999991 -42.534078 179.999991 0.000000 0.000000 0.000000 -2.717717 0.572448 0.077790 0.517629 6.987895 0.064795 0.000000 0.000000 0.000000 15.855748 6.841809 66.926073 179.999978 46.897486 179.999991 0.000000 0.000000 0.000000 
-1.079947 5.677135 10.368984 0.000000 0.000000 0.000000 -87.570620 -3.381879 1.775739 -27.091650 18.628736 -13.836444 31.971501 -4.314289 -10.118825 -2.368655 6.627466 13.909211 -0.263376 0.000002 -0.000007 0.000000 0.000000 0.000000 -87.570620 -3.381879 1.775739 -0.934743 -10.064382 4.228229 -4.571057 -11.607083 3.971762 14.810972 -3.410609 22.090570 -1.624421 0.000029 -0.000007 0.000000 0.000000 0.000000 -87.570620 -3.381879 1.775739 0.705898 1.330164 -3.827723 -2.722018 0.546034 0.060520 0.000000 0.000000 0.000000 0.000000 0.000000 0.000000 -2.719594 0.568491 0.076137 3.966114 -0.170213 0.207897 7.633109 -2.775944 7.985334 0.000000 0.000000 0.000000 -2.719594 0.568491 0.076137 1.283078 -13.489748 -1.832720 0.000000 0.000000 0.000000 20.479668 -1.043241 -71.011810 179.999991 -42.550613 179.999991 0.000000 0.000000 0.000000 -2.719594 0.568491 0.076137 0.518184 7.006935 0.064737 0.000000 0.000000 0.000000 15.855796 6.837074 66.946946 179.999991 46.900310 180.000005 0.000000 0.000000 0.000000 
-1.079862 5.676361 10.368309 0.000000 0.000000 0.000000 -87.567957 -3.377938 1.776502 -27.095060 18.630680 -13.839620 31.968871 -4.312828 -10.116474 -2.365432 6.632388 13.917771 -0.257601 -0.000001 0.000007 0.000000 0.000000 0.000000 -87.567957 -3.377938 1.776502 -0.936739 -10.068740 4.228672 -4.570631 -11.604695 3.971663 14.810799 -3.417731 22.083617 -1.616897 0.000015 -0.000017 0.000000 0.000000 0.000000 -87.567957 -3.377938 1.776502 0.709641 1.324746 -3.829103 -2.722503 0.544669 0.059635 0.000000 0.000000 0.000000 0.000000 0.000000 0.000000 -2.720120 0.567143 0.075215 3.966532 -0.169109 0.209704 7.624870 -2.763045 7.987525 0.000000 0.000000 0.000000 -2.720120 0.567143 0.075215 1.285505 -13.492432 -1.807296 0.000000 0.000000 0.000000 20.488165 -1.044216 -71.038004 179.999978 -42.564889 179.999991 0.000000 0.000000 0.000000 -2.720120 0.567143 0.075215 0.517970 7.023476 0.064649 0.000000 0.000000 0.000000 15.863685 6.832218 66.962007 179.999991 46.903695 179.999978 0.000000 0.000000 0.000000 
-1.079141 5.675537 10.367531 0.000000 0.000000 0.000000 -87.566591 -3.375890 1.777972 -27.094853 18.632155 -13.845066 31.963496 -4.310676 -10.114843 -2.365086 6.637011 13.929505 -0.254779 0.000001 0.000005 0.000000 0.000000 0.000000 -87.566591 -3.375890 1.777972 -0.938813 -10.072991 4.229243 -4.570702 -11.603145 3.971563 14.811612 -3.425045 22.075936 -1.609864 -0.000008 0.000015 0.000000 0.000000 0.000000 -87.566591 -3.375890 1.777972 0.713751 1.331993 -3.828365 -2.720986 0.546591 0.059757 0.000000 0.000000 0.000000 0.000000 0.000000 0.000000 -2.718565 0.569030 0.075397 3.968150 -0.169301 0.208651 7.604198 -2.766012 7.987364 0.000000 0.000000 0.000000 -2.718565 0.569030 0.075397 1.286720 -13.506090 -1.804289 0.000000 0.000000 0.000000 20.483131 -1.033714 -71.037341 179.999991 -42.568795 -179.999991 0.000000 0.000000 0.000000 -2.718565 0.569030 0.075397 0.517594 7.031263 0.064616 0.000000 0.000000 0.000000 15.870769 6.825705 66.969896 179.999978 46.902404 -179.999991 0.000000 0.000000 0.000000 
-1.078417 5.674873 10.366405 0.000000 0.000000 0.000000 -87.566898 -3.375505 1.779780 -27.091348 18.632467 -13.850354 31.956471 -4.308312 -10.114635 -2.368800 6.640765 13.943298 -0.249458 0.000001 0.000002 0.000000 0.000000 0.000000 -87.566898 -3.375505 1.779780 -0.941566 -10.077124 4.229633 -4.570380 -11.602588 3.971519 14.813425 -3.432848 22.067687 -1.603613 0.000014 -0.000018 0.000000 0.000000 0.000000 -87.566898 -3.375505 1.779780 0.713060 1.341657 -3.822408 -2.718066 0.548779 0.060882 0.000000 0.000000 0.000000 0.000000 0.000000 0.000000 -2.715637 0.571119 0.076582 3.971648 -0.170804 0.205843 7.574637 -2.788149 7.992803 0.000000 0.000000 0.000000 -2.715637 0.571119 0.076582 1.282970 -13.501665 -1.842858 0.000000 0.000000 0.000000 20.463826 -1.019665 -70.980747 179.999978 -42.564503 179.999978 0.000000 0.000000 0.000000 -2.715637 0.571119 0.076582 0.517930 7.036209 0.064645 0.000000 0.000000 0.000000 15.865630 6.819710 66.975927 179.999991 46.896495 -179.999991 0.000000 0.000000 0.000000 
-1.078114 5.674374 10.364666 0.000000 0.000000 0.000000 -87.567082 -3.376375 1.781223 -27.086715 18.631704 -13.854059 31.947223 -4.307859 -10.114685 -2.373504 6.646237 13.956821 -0.243459 0.000002 0.000005 0.000000 0.000000 0.000000 -87.567082 -3.376375 1.781223 -0.944944 -10.081045 4.229671 -4.569620 -11.603299 3.971609 14.816625 -3.441445 22.058999 -1.598515 0.000020 -0.000009 0.000000 0.000000 0.000000 -87.567082 -3.376375 1.781223 0.708702 1.341157 -3.811146 -2.715918 0.547865 0.062476 0.000000 0.000000 0.000000 0.000000 0.000000 0.000000 -2.713445 0.570065 0.078140 3.976750 -0.172125 0.203531 7.544338 -2.812397 8.000889 0.000000 0.000000 0.000000 -2.713445 0.570065 0.078140 1.272972 -13.453228 -1.917170 0.000000 0.000000 0.000000 20.436063 -1.016169 -70.871996 179.999978 -42.564240 179.999978 0.000000 0.000000 0.000000 -2.713445 0.570065 0.078140 0.519311 7.051234 0.064607 0.000000 0.000000 0.000000 15.845964 6.814215 66.989928 179.999978 46.890242 -179.999991 0.000000 0.000000 0.000000 
-1.078104 5.673878 10.362297 0.000000 0.000000 0.000000 -87.565894 -3.377044 1.782243 -27.082434 18.630441 -13.856617 31.934471 -4.308029 -10.114984 -2.376467 6.653035 13.971059 -0.238272 -0.000008 0.000007 0.000000 0.000000 0.000000 -87.565894 -3.377044 1.782243 -0.948756 -10.084674 4.229406 -4.568215 -11.605519 3.971814 14.821114 -3.451117 22.049866 -1.594842 0.000019 0.000005 0.000000 0.000000 0.000000 -87.565894 -3.377044 1.782243 0.704540 1.329351 -3.798029 -2.716099 0.543783 0.063606 0.000000 0.000000 0.000000 0.000000 0.000000 0.000000 -2.713689 0.565849 0.079147 3.982109 -0.172418 0.203573 7.520109 -2.823690 8.006238 0.000000 0.000000 0.000000 -2.713689 0.565849 0.079147 1.261240 -13.374784 -1.988856 0.000000 0.000000 0.000000 20.411544 -1.028023 -70.762973 179.999978 -42.576654 179.999991 0.000000 0.000000 0.000000 -2.713689 0.565849 0.079147 0.521648 7.079347 0.064494 0.000000 0.000000 0.000000 15.821665 6.807400 67.016443 179.999991 46.887124 179.999978 0.000000 0.000000 0.000000 
